<svg width="201" height="201" viewBox="0 0 201 201" fill="none" xmlns="http://www.w3.org/2000/svg">
<rect width="201" height="201" rx="100.5" fill="#E5D7C1"/>
<path d="M98.5682 37.3286C101.706 37.3286 104.844 37.3286 107.982 37.3286C107.985 37.6071 107.985 37.8869 107.986 38.1655C109.708 38.1756 111.43 38.1617 113.153 38.173C113.151 38.4592 113.152 38.744 113.156 39.0301C114.301 39.0301 115.446 39.0352 116.593 39.0276C116.599 39.3301 116.611 39.6339 116.633 39.9363C117.481 39.9237 118.331 39.9338 119.18 39.93C119.179 40.2023 119.179 40.4745 119.179 40.7468C120.038 40.748 120.897 40.748 121.756 40.748C121.756 41.0253 121.755 41.3039 121.756 41.5824C122.88 41.5799 124.004 41.5862 125.128 41.5786C125.136 41.8837 125.14 42.1887 125.142 42.4937C125.729 42.5012 126.318 42.4975 126.906 42.4975C126.905 42.7735 126.905 43.0495 126.906 43.3268C127.176 43.3256 127.448 43.3268 127.72 43.3268C127.72 43.618 127.725 43.9104 127.736 44.2028C128.881 44.1977 130.026 44.2015 131.173 44.2015C131.171 44.4952 131.174 44.7889 131.179 45.0825C131.743 45.0889 132.309 45.0851 132.876 45.0863C132.873 45.3586 132.873 45.6308 132.873 45.9031C133.46 45.9056 134.049 45.9043 134.637 45.9043C134.637 46.1829 134.636 46.4614 134.637 46.7412C134.904 46.74 135.171 46.74 135.441 46.7387C135.444 47.0425 135.447 47.3462 135.45 47.6512C135.746 47.6538 136.043 47.6563 136.34 47.6575C136.339 47.9323 136.339 48.2071 136.34 48.4818C136.906 48.4856 137.471 48.4793 138.037 48.4881C138.038 48.7831 138.045 49.078 138.062 49.3729C138.637 49.3654 139.211 49.3704 139.786 49.3691C139.784 49.6389 139.786 49.9099 139.788 50.1808C140.058 50.1594 140.328 50.138 140.602 50.1292C140.249 50.172 139.896 50.1922 139.545 50.2224C139.545 50.7556 139.545 51.29 139.546 51.8231C140.082 51.8231 140.619 51.8231 141.156 51.8231C141.156 51.5673 141.155 51.3127 141.157 51.0568C141.272 51.0581 141.389 51.0581 141.508 51.0593C141.506 51.3391 141.505 51.6202 141.506 51.9025C141.79 51.9025 142.074 51.9025 142.359 51.9025C142.362 52.2063 142.364 52.5113 142.368 52.8151C142.646 52.8151 142.927 52.8163 143.208 52.8214C143.207 53.0193 143.207 53.2171 143.209 53.4163C143.061 53.4226 142.912 53.4302 142.767 53.4365C142.709 53.9482 142.89 54.5179 142.675 54.9918C142.183 55.1166 141.661 55.0195 141.157 55.0472C141.155 55.5829 141.156 56.1186 141.156 56.6555C141.661 56.6694 142.168 56.6265 142.672 56.6643C142.887 57.1521 142.712 57.7344 142.767 58.2613C143.304 58.2625 143.842 58.2613 144.38 58.2613C144.379 57.7256 144.379 57.1899 144.38 56.6555C143.866 56.629 143.34 56.711 142.835 56.6164C142.685 56.1413 142.787 55.6169 142.793 55.1241C142.815 55.0977 142.863 55.0472 142.887 55.022C143.299 55.0422 143.712 55.0409 144.127 55.0636C144.122 55.1367 144.111 55.2842 144.106 55.3586C144.376 55.3598 144.649 55.3598 144.923 55.3586C144.953 55.9257 144.938 56.4942 144.94 57.0626C145.21 57.0626 145.481 57.0626 145.753 57.0613C145.754 57.3638 145.757 57.6664 145.76 57.9688C146.062 57.9701 146.365 57.9726 146.667 57.9764C146.666 58.5247 146.666 59.073 146.667 59.6212C146.947 59.62 147.228 59.6212 147.51 59.6199C147.524 60.2035 147.517 60.7871 147.518 61.3707C147.786 61.3707 148.056 61.3707 148.327 61.3707C148.325 61.9542 148.327 62.539 148.327 63.1239C148.616 63.1302 148.906 63.1314 149.198 63.1339C149.194 63.9822 149.203 64.8304 149.193 65.6787C149.492 65.6951 149.792 65.7014 150.093 65.7039C150.096 66.2685 150.098 66.8345 150.09 67.4016C150.362 67.4016 150.638 67.4029 150.913 67.4029C150.913 67.9688 150.913 68.5347 150.914 69.1007C150.639 69.1007 150.366 69.1007 150.095 69.1019C150.094 69.6893 150.096 70.2779 150.091 70.8652C149.792 70.8614 149.494 70.8564 149.197 70.8413C149.197 70.54 149.194 70.2401 149.186 69.9388C148.915 69.9426 148.643 69.9426 148.373 69.9439C148.373 69.6779 148.376 69.4145 148.381 69.1498C147.813 69.0666 147.237 69.1095 146.666 69.1019C146.665 68.8322 146.666 68.565 146.669 68.2965C146.364 68.2928 146.059 68.2915 145.755 68.2927C145.757 69.1486 145.755 70.0044 145.755 70.8602C145.482 70.8602 145.211 70.8602 144.94 70.8602C144.94 71.4059 144.94 71.9517 144.94 72.4987C145.211 72.4974 145.483 72.4974 145.757 72.4987C145.754 72.2252 145.755 71.9542 145.755 71.682C146.059 71.6807 146.364 71.6807 146.67 71.6857C146.664 72.5428 146.667 73.4011 146.667 74.2582C146.95 74.2582 147.233 74.2582 147.518 74.2582C147.517 73.986 147.518 73.7137 147.519 73.4415C147.804 73.444 148.091 73.4478 148.377 73.4616C148.374 73.7238 148.373 73.9872 148.372 74.2506C148.674 74.2519 148.982 74.2582 149.279 74.33C149.271 74.5884 149.268 74.8468 149.268 75.1065C149.536 75.1052 149.809 75.1052 150.081 75.1014C150.104 75.6774 150.093 76.2547 150.095 76.8319C150.366 76.8319 150.637 76.8307 150.91 76.8319C150.91 77.1344 150.915 77.4382 150.928 77.7419C151.199 77.7382 151.463 77.7331 151.738 77.7281C151.675 78.0016 151.641 78.2814 151.592 78.5587L151.771 77.8831C151.389 78.8561 152.217 78.5524 152.656 78.6078C152.678 78.2864 152.673 77.9625 152.587 77.6512C152.33 77.6588 152.073 77.6613 151.82 77.6676C151.827 75.966 151.839 74.2632 151.813 72.5617C152.097 72.5705 152.382 72.5731 152.668 72.5743C152.666 73.9935 152.668 75.4127 152.668 76.8319C152.938 76.8319 153.209 76.8307 153.483 76.8307C153.483 77.9058 153.483 78.9809 153.483 80.056C153.156 80.056 152.833 80.056 152.51 80.056C152.509 80.593 152.509 81.1311 152.51 81.6693C153.046 81.6681 153.581 81.6681 154.116 81.6681C154.115 82.2025 154.115 82.7369 154.116 83.2713C153.903 83.2751 153.692 83.2789 153.481 83.2852C153.473 84.8796 153.507 86.4752 153.462 88.0684C153.197 88.0646 152.931 88.0633 152.668 88.0633C152.666 89.2065 152.668 90.3497 152.668 91.4929C152.387 91.4929 152.106 91.4916 151.827 91.4929C151.824 92.0701 151.839 92.6474 151.81 93.2234C151.51 93.2247 151.21 93.2272 150.912 93.231C150.912 93.5095 150.913 93.7906 150.914 94.0704C150.639 94.0704 150.367 94.0704 150.095 94.0716C150.094 94.6401 150.101 95.2085 150.085 95.7782C149.816 95.7732 149.546 95.7707 149.28 95.7669L149.308 95.903L149.189 95.8765C149.193 96.1337 149.198 96.3908 149.201 96.6492C148.909 96.6504 148.616 96.6517 148.325 96.658C148.324 96.9227 148.325 97.1886 148.327 97.4558C148.057 97.4546 147.787 97.4533 147.522 97.4533C147.514 99.1725 147.519 100.892 147.519 102.611C147.234 102.612 146.95 102.612 146.667 102.613C146.666 103.199 146.664 103.787 146.67 104.374C146.365 104.379 146.059 104.38 145.757 104.38C145.755 104.954 145.759 105.529 145.75 106.102C145.204 106.101 144.657 106.101 144.11 106.102C144.111 106.364 144.115 106.628 144.124 106.891C142.959 107.044 141.775 106.918 140.603 106.964C140.603 107.521 140.603 108.08 140.604 108.639C140.337 108.637 140.073 108.636 139.808 108.632C139.758 113.067 139.801 117.502 139.787 121.938C139.946 121.937 140.107 121.937 140.271 121.938C140.269 122.475 140.269 123.012 140.271 123.549C139.733 123.554 139.195 123.557 138.658 123.556C138.658 124.091 138.657 124.626 138.658 125.163C139.195 125.162 139.731 125.162 140.269 125.162C140.269 124.626 140.269 124.091 140.269 123.556C140.806 123.555 141.344 123.555 141.882 123.556C141.88 124.092 141.88 124.626 141.882 125.163C142.417 125.162 142.955 125.162 143.493 125.163C143.492 124.627 143.492 124.092 143.493 123.556C144.028 123.555 144.566 123.555 145.104 123.556C145.103 124.091 145.103 124.626 145.104 125.162C145.638 125.162 146.174 125.162 146.709 125.162C146.709 125.7 146.709 126.237 146.71 126.775C146.174 126.774 145.638 126.774 145.104 126.775C145.103 126.237 145.103 125.699 145.104 125.162C144.566 125.161 144.03 125.162 143.493 125.163C143.492 125.7 143.492 126.237 143.493 126.775C142.955 126.774 142.417 126.775 141.882 126.775C141.88 126.237 141.882 125.7 141.882 125.163C141.344 125.162 140.806 125.161 140.269 125.162C140.269 125.699 140.269 126.237 140.269 126.774C140.354 126.775 140.52 126.775 140.604 126.776C140.602 128.76 140.606 130.745 140.602 132.731C140.903 132.733 141.205 132.736 141.508 132.738C141.506 133.22 141.506 133.701 141.508 134.184C141.601 134.185 141.788 134.185 141.882 134.186C141.88 134.722 141.88 135.259 141.882 135.797C142.394 135.774 142.916 135.845 143.425 135.768C143.58 135.263 143.451 134.709 143.492 134.185C144.028 134.185 144.566 134.185 145.104 134.185C145.103 134.721 145.103 135.256 145.104 135.792C144.598 135.811 144.086 135.752 143.585 135.813C143.377 136.303 143.543 136.879 143.493 137.404C143.115 137.404 142.74 137.404 142.364 137.404C142.367 138.146 142.353 138.89 142.374 139.632C142.639 139.63 142.903 139.629 143.17 139.63C143.187 140.769 143.134 141.91 143.199 143.048C143.272 143.046 143.42 143.041 143.493 143.038C143.492 142.878 143.49 142.719 143.492 142.562C144.028 142.56 144.566 142.56 145.103 142.562C145.103 143.097 145.103 143.632 145.103 144.169C144.773 144.167 144.443 144.167 144.114 144.169C144.113 144.653 144.114 145.138 144.114 145.623C144.387 145.622 144.664 145.622 144.942 145.623C144.957 146.765 144.904 147.911 144.972 149.051C145.231 149.048 145.493 149.046 145.755 149.046C145.757 149.891 145.755 150.737 145.757 151.581C145.835 151.582 145.991 151.582 146.069 151.582C146.069 152.118 146.069 152.655 146.069 153.192C146.268 153.194 146.47 153.202 146.671 153.209C146.666 153.527 146.666 153.846 146.666 154.165C146.94 154.204 147.277 154.073 147.51 154.264C147.524 154.441 147.519 154.62 147.524 154.801C147.039 154.803 146.554 154.801 146.069 154.803C146.069 155.34 146.069 155.876 146.069 156.415C146.604 156.415 147.14 156.415 147.676 156.416C147.674 156.252 147.674 156.091 147.675 155.932C147.891 155.931 148.107 155.931 148.327 155.932C148.325 156.205 148.325 156.48 148.327 156.756C148.107 156.752 147.893 156.755 147.678 156.755C147.675 157.178 147.674 157.602 147.675 158.028C147.14 158.027 146.604 158.027 146.07 158.028C146.069 157.49 146.069 156.95 146.069 156.415C145.532 156.413 144.995 156.415 144.458 156.415C144.458 156.952 144.458 157.49 144.458 158.028C143.921 158.027 143.385 158.025 142.849 158.029C142.844 157.491 142.847 156.953 142.847 156.415C142.309 156.415 141.772 156.415 141.235 156.415C141.235 155.878 141.234 155.34 141.235 154.803C140.699 154.803 140.163 154.803 139.629 154.803C139.628 155.178 139.628 155.555 139.629 155.932C138.532 155.932 137.436 155.931 136.34 155.933C136.339 156.205 136.34 156.48 136.341 156.755C135.773 156.756 135.205 156.755 134.638 156.756C134.637 156.48 134.636 156.205 134.637 155.932C134.356 155.931 134.075 155.931 133.795 155.932C133.794 153.937 133.795 151.94 133.794 149.944C133.734 149.959 133.612 149.989 133.551 150.004L133.579 149.869C133.353 149.872 133.129 149.873 132.906 149.872C132.852 150.445 132.88 151.023 132.875 151.6C132.482 151.599 132.086 151.59 131.694 151.62C131.441 151.117 131.638 150.515 131.577 149.972C131.04 149.97 130.503 149.97 129.966 149.972C129.965 150.507 129.966 151.045 129.966 151.584C129.428 151.584 128.891 151.584 128.355 151.584C128.353 152.12 128.353 152.657 128.355 153.196C127.817 153.196 127.28 153.196 126.743 153.196C126.742 152.659 126.742 152.12 126.742 151.584C127.279 151.582 127.817 151.584 128.355 151.584C128.353 151.045 128.353 150.508 128.355 149.972C127.817 149.97 127.28 149.97 126.743 149.972C126.742 150.237 126.742 150.506 126.743 150.776C125.35 150.773 123.957 150.777 122.564 150.773C122.565 150.497 122.564 150.221 122.565 149.948C122.313 149.949 122.062 149.953 121.812 149.96C121.689 148.791 121.795 147.611 121.749 146.437C121.473 146.437 121.198 146.437 120.923 146.436L120.983 146.586L120.843 146.539C120.847 146.807 120.848 147.076 120.848 147.346C120.559 147.344 120.271 147.344 119.985 147.347C119.981 147.913 119.991 148.482 119.974 149.05C119.709 149.048 119.445 149.045 119.183 149.046C119.18 149.346 119.177 149.649 119.17 149.951C118.885 149.95 118.599 149.949 118.315 149.951C118.315 150.22 118.316 150.492 118.321 150.763C117.158 150.788 115.995 150.768 114.834 150.776C114.833 151.049 114.833 151.324 114.834 151.6C113.709 151.596 112.585 151.606 111.46 151.595C111.45 151.901 111.443 152.209 111.435 152.518C110.584 152.505 109.732 152.514 108.88 152.512C108.877 152.207 108.873 151.902 108.87 151.599C108.574 151.599 108.28 151.599 107.986 151.597C107.986 151.048 107.985 150.501 107.986 149.953C107.695 149.95 107.404 149.95 107.114 149.951C107.09 149.083 107.108 148.213 107.102 147.344C106.835 147.344 106.569 147.345 106.304 147.349C106.292 145.913 106.302 144.479 106.298 143.044C106.565 143.043 106.833 143.043 107.103 143.044C107.102 141.906 107.103 140.768 107.103 139.631C107.393 139.629 107.685 139.629 107.977 139.63C107.999 138.463 107.976 137.294 107.99 136.126C108.285 136.124 108.581 136.124 108.875 136.124C108.875 135.266 108.875 134.408 108.877 133.552C109.144 133.55 109.411 133.551 109.679 133.552C109.685 132.688 109.66 131.824 109.699 130.962C109.974 130.963 110.248 130.963 110.526 130.966C110.526 130.503 110.524 130.042 110.527 129.581C110.458 129.515 110.317 129.383 110.247 129.317C110.128 129.305 110.01 129.293 109.893 129.285C109.892 129.17 109.892 129.056 109.892 128.944C109.675 128.826 109.581 128.594 109.462 128.396C109.335 128.395 109.208 128.395 109.082 128.396C109.032 128.209 108.972 128.027 108.889 127.854L108.894 127.812C108.659 127.691 108.414 127.565 108.295 127.317L108.287 127.281C108.088 127.1 107.871 126.943 107.68 126.756C107.601 126.755 107.441 126.751 107.361 126.749C107.367 126.706 107.379 126.619 107.385 126.575C107.083 126.441 107.039 126.098 106.91 125.832C106.521 125.897 106.303 125.599 106.091 125.335L106.112 125.295C105.895 125.264 105.808 125.105 105.798 124.901C105.7 124.74 105.596 124.583 105.47 124.447L105.465 124.398C105.4 124.388 105.27 124.368 105.205 124.358C105.145 124.069 105.056 123.791 104.979 123.508C104.939 123.508 104.859 123.507 104.819 123.506C104.82 123.41 104.822 123.218 104.823 123.123C104.75 123.107 104.606 123.077 104.533 123.062C104.465 122.872 104.401 122.681 104.342 122.49C104.121 122.423 104.192 122.199 104.156 122.039C103.935 121.976 103.848 121.802 103.848 121.579L103.721 121.582C103.719 121.86 103.722 122.139 103.727 122.418C103.656 122.413 103.514 122.404 103.443 122.399C103.448 122.303 103.459 122.114 103.464 122.018C103.151 121.945 103.256 121.611 103.223 121.377C103.068 121.248 103.076 121.048 103.031 120.875C102.981 120.875 102.88 120.877 102.83 120.878C102.807 121.964 102.822 123.051 102.822 124.138C103.121 124.141 103.421 124.143 103.722 124.145C103.722 128.138 103.721 132.131 103.722 136.124C103.422 136.124 103.122 136.124 102.824 136.129C102.814 139.564 102.822 143.002 102.819 146.439C102.53 146.439 102.243 146.437 101.956 146.439C101.944 148.464 101.961 150.488 101.947 152.514C101.678 152.511 101.411 152.51 101.144 152.511C101.143 152.952 101.143 153.395 101.144 153.837C101.413 153.835 101.682 153.836 101.953 153.837C101.952 154.373 101.952 154.911 101.953 155.448C101.682 155.448 101.413 155.448 101.144 155.449C101.143 155.986 101.144 156.523 101.144 157.061C101.413 157.06 101.682 157.059 101.952 157.061C101.952 157.598 101.952 158.136 101.952 158.675C101.414 158.672 100.877 158.673 100.341 158.673C100.341 159.209 100.341 159.745 100.341 160.28C99.8028 160.279 99.2661 160.28 98.7295 160.28C98.7295 160.817 98.7295 161.354 98.7295 161.892C98.1928 161.892 97.6549 161.892 97.1183 161.892C97.1183 161.354 97.1183 160.817 97.1183 160.28C96.5829 160.279 96.0487 160.279 95.5134 160.28C95.5121 159.959 95.5108 159.64 95.5033 159.321C95.4088 159.322 95.2211 159.325 95.1266 159.325C95.1266 157.056 95.1266 154.786 95.1279 152.518C94.8243 152.512 94.5232 152.51 94.2221 152.51C94.2196 153.651 94.2209 154.791 94.2209 155.932C93.9513 155.931 93.683 155.931 93.4146 155.932C93.4134 156.514 93.4209 157.098 93.4046 157.68C93.1022 157.674 92.8011 157.67 92.5001 157.662C92.4963 156.822 92.5038 155.982 92.495 155.143C92.7961 155.061 93.106 155.027 93.4184 155.032C93.4121 153.613 93.4172 152.194 93.4159 150.776C93.683 150.773 93.9525 150.773 94.2221 150.774C94.2234 149.329 94.2146 147.884 94.2272 146.439C94.5257 146.437 94.8268 146.437 95.1279 146.432C95.1228 143.318 95.1316 140.202 95.1228 137.088C95.41 137.031 95.7036 137.008 95.9971 136.992C95.9908 132.137 95.9958 127.282 95.9946 122.427C95.7048 122.426 95.4151 122.426 95.1266 122.427C95.1254 118.702 95.1291 114.978 95.1254 111.253C95.0586 111.268 94.9238 111.3 94.857 111.315L94.9087 111.175C94.6782 111.18 94.4489 111.183 94.2209 111.185C94.2196 109.777 94.2209 108.368 94.2209 106.96C93.0934 106.96 91.9659 106.96 90.8385 106.96C90.8385 107.228 90.8385 107.496 90.8385 107.766C91.1055 107.765 91.3739 107.765 91.6422 107.765C91.646 109.214 91.6422 110.662 91.6434 112.112C91.3751 112.112 91.1068 112.112 90.8385 112.113C90.8397 112.676 90.8372 113.241 90.841 113.806C91.1043 113.803 91.3701 113.803 91.6346 113.801C91.656 115.816 91.6371 117.831 91.6447 119.848C91.3751 119.847 91.1068 119.847 90.8385 119.848C90.8385 120.977 90.8385 122.108 90.8385 123.237C91.1055 123.236 91.3726 123.236 91.6397 123.236C91.6472 124.382 91.6422 125.529 91.6434 126.674C91.3802 126.673 91.1169 126.673 90.8536 126.672C90.8196 131.268 90.8485 135.868 90.8385 140.466C90.5462 140.464 90.2552 140.466 89.9642 140.468C89.9604 141.907 89.9756 143.347 89.9554 144.786C89.6606 144.787 89.3658 144.788 89.0723 144.79C89.0711 145.642 89.0736 146.494 89.0698 147.346C88.799 147.345 88.5281 147.344 88.2585 147.345C88.256 147.911 88.2661 148.478 88.2472 149.045C87.9423 149.045 87.6375 149.051 87.3339 149.07C87.3427 149.637 87.3377 150.206 87.3389 150.776C87.0567 150.773 86.7758 150.774 86.4949 150.774C86.4936 151.049 86.4936 151.324 86.4936 151.601C86.2253 151.599 85.9557 151.597 85.6874 151.599C85.6811 152.182 85.6836 152.767 85.6836 153.352C85.3876 153.352 85.0916 153.353 84.7968 153.357C84.7968 153.62 84.7993 153.888 84.8031 154.154C84.5058 154.161 84.2097 154.176 83.9162 154.214C83.9162 154.485 83.9175 154.755 83.9225 155.028L83.7915 155.009L83.8167 155.121C82.426 155.103 81.0365 155.114 79.6457 155.115C79.6306 154.795 79.6293 154.475 79.6407 154.156C79.4555 154.155 79.2716 154.156 79.0889 154.159C79.0877 153.622 79.0877 153.086 79.0889 152.55C79.623 152.549 80.1584 152.549 80.6938 152.55C80.6926 153.09 80.6989 153.63 80.6875 154.171C81.2267 154.165 81.7659 154.152 82.3063 154.157C82.305 153.62 82.305 153.083 82.3063 152.549C81.7684 152.55 81.2305 152.549 80.6938 152.55C80.6926 152.012 80.6938 151.474 80.6951 150.938C81.2317 150.938 81.7684 150.937 82.3063 150.938C82.305 151.461 82.305 151.986 82.3088 152.511C82.567 152.51 82.8253 152.511 83.0848 152.516C83.1226 151.935 83.1138 151.354 83.1138 150.774C83.3808 150.773 83.6492 150.773 83.9175 150.774C83.9175 150.5 83.9162 150.224 83.9175 149.951C84.2072 149.949 84.497 149.949 84.788 149.95C84.8043 149.368 84.798 148.785 84.798 148.204C85.0928 148.202 85.3876 148.199 85.6836 148.199C85.6824 147.612 85.6849 147.026 85.6799 146.44C85.3863 146.439 85.0953 146.439 84.8031 146.44C84.7993 146.74 84.7968 147.039 84.7968 147.341C84.5033 147.344 84.2097 147.344 83.9187 147.346C83.9175 147.63 83.9162 147.916 83.9175 148.202C83.6517 148.201 83.3859 148.199 83.1226 148.199C83.1125 148.482 83.0999 148.767 83.0785 149.051C82.625 149.046 82.1715 149.048 81.718 149.046C81.3892 149.046 81.0617 149.046 80.7341 149.054C80.7039 148.769 80.6913 148.485 80.685 148.202C81.1839 148.201 81.684 148.202 82.1841 148.201C82.1803 147.938 82.1791 147.679 82.1715 147.42L82.2899 147.471L82.2849 147.34C82.5507 147.342 82.8165 147.345 83.0835 147.351C83.0987 147.045 83.1163 146.739 83.1301 146.434C83.3922 146.437 83.6542 146.437 83.9175 146.441C83.9162 146.168 83.9162 145.897 83.9162 145.626C84.211 145.623 84.5058 145.619 84.8018 145.613C84.7955 145.036 84.7993 144.459 84.798 143.881C85.0916 143.877 85.3863 143.876 85.6799 143.877C85.6862 143.309 85.6799 142.741 85.6887 142.173C85.9557 142.175 86.2228 142.175 86.4911 142.177C86.4962 141.021 86.4962 139.867 86.4911 138.711C86.2215 138.711 85.952 138.711 85.6836 138.712C85.6836 139.568 85.6824 140.424 85.6849 141.281C85.3901 141.282 85.0966 141.284 84.8031 141.285C84.7955 141.87 84.798 142.455 84.7993 143.039C84.5045 143.042 84.211 143.043 83.9162 143.046C83.9162 143.627 83.9238 144.209 83.9074 144.791C83.6429 144.789 83.3771 144.786 83.1138 144.789C83.1125 145.061 83.1138 145.337 83.1138 145.613C82.7988 145.618 82.4852 145.627 82.1727 145.656C82.179 145.917 82.1803 146.176 82.1841 146.44C81.9057 146.437 81.6298 146.437 81.3527 146.435C81.3426 146.739 81.3363 147.042 81.3312 147.349C81.0642 147.345 80.7996 147.344 80.5338 147.344C80.5338 147.436 80.5326 147.62 80.5313 147.71C80.0501 147.713 79.5689 147.713 79.0889 147.713C79.0877 148.25 79.0877 148.787 79.0889 149.325C79.623 149.325 80.1584 149.325 80.6938 149.325C80.6938 149.862 80.6951 150.4 80.6951 150.938C80.1597 150.937 79.623 150.936 79.0889 150.938C79.0877 150.4 79.0877 149.862 79.0889 149.325C78.5523 149.324 78.0156 149.326 77.4802 149.325C77.4752 149.532 77.4727 149.742 77.4676 149.951C77.0418 149.95 76.6161 149.95 76.1903 149.951C76.1903 150.225 76.1903 150.498 76.1915 150.774C75.6158 150.774 75.0414 150.773 74.4682 150.776C74.4669 151.049 74.4669 151.324 74.4682 151.6C73.599 151.609 72.7298 151.579 71.8618 151.62C71.8618 151.918 71.858 152.214 71.8542 152.514C71.0052 152.511 70.1561 152.509 69.3071 152.516C69.3071 152.795 69.3071 153.073 69.3071 153.353C67.8936 153.354 66.4802 153.353 65.0655 153.354C65.0655 153.623 65.0668 153.894 65.0681 154.165C63.8889 154.186 62.7086 154.14 61.5295 154.188C61.0079 154.283 60.4776 154.083 59.9636 154.238C59.9157 153.944 59.9031 153.648 59.9019 153.353C60.179 153.352 60.4562 153.352 60.7333 153.353C60.732 153.072 60.732 152.791 60.732 152.511C60.1526 152.51 59.5718 152.52 58.9911 152.499C58.9923 152.197 58.9886 151.896 58.9848 151.597C58.7114 151.597 58.4381 151.6 58.1647 151.602C58.1458 150.75 58.1597 149.898 58.1559 149.048C58.4318 149.046 58.7064 149.046 58.9835 149.049C58.9949 148.48 58.9898 147.912 58.9886 147.345C58.4406 147.345 57.8926 147.345 57.3446 147.345C57.3433 147.894 57.3396 148.445 57.3471 148.995C57.0448 149.026 56.7425 149.051 56.4401 149.063C56.4439 149.326 56.4452 149.59 56.4502 149.857L56.3116 149.834L56.3645 149.958C56.1063 149.951 55.848 149.95 55.5911 149.951C55.581 149.649 55.5772 149.346 55.5747 149.046C54.9927 149.043 54.4056 149.083 53.8287 148.978C53.8388 148.436 53.8337 147.894 53.8337 147.352C54.1361 147.346 54.4371 147.342 54.7395 147.345C54.742 147.042 54.7407 146.74 54.737 146.44C54.4346 146.439 54.1335 146.436 53.8325 146.429C53.8337 146.159 53.8337 145.89 53.835 145.623C53.5566 145.622 53.2794 145.622 53.001 145.623C53.001 145.345 53.001 145.066 53.001 144.79C52.4316 144.789 51.861 144.788 51.2903 144.79C51.2802 144.485 51.2752 144.18 51.2739 143.877C50.726 143.877 50.178 143.876 49.63 143.88C49.6073 143.6 49.5796 143.32 49.562 143.042C49.3062 143.042 49.0505 143.043 48.7948 143.053C48.6209 142.892 48.6235 142.712 48.8036 142.512L48.6675 142.57V142.247L48.8074 142.305C48.762 142.214 48.6713 142.032 48.626 141.942L48.8704 141.824L48.6713 141.79C48.6701 141.655 48.6675 141.384 48.6675 141.25L48.7784 141.296C48.7268 141.033 48.6789 140.768 48.6449 140.503C48.9686 140.469 49.2936 140.456 49.6199 140.435C49.6149 139.859 49.6161 139.286 49.6199 138.711C49.8882 138.711 50.1553 138.711 50.4236 138.714C50.4261 137.85 50.4198 136.987 50.4274 136.124C50.7134 136.124 50.9993 136.122 51.2853 136.124C51.279 136.045 51.2676 135.889 51.2626 135.812C51.376 135.805 51.604 135.792 51.7174 135.786C51.7136 135.251 51.7161 134.718 51.7161 134.186C51.5687 134.183 51.4226 134.181 51.2765 134.183C51.2765 133.972 51.2777 133.765 51.2765 133.557C51.5801 133.554 51.8824 133.55 52.186 133.55C52.186 133.225 52.186 132.901 52.1873 132.579C52.0298 132.574 51.8723 132.572 51.7148 132.57C51.7161 132.034 51.7148 131.497 51.7161 130.961C52.2528 130.96 52.7894 130.96 53.3261 130.961C53.3235 130.408 53.3361 129.854 53.3147 129.302C53.5125 129.3 53.7103 129.297 53.9093 129.291C53.9143 128.131 53.903 126.971 53.9169 125.811C54.1915 125.81 54.4674 125.81 54.7433 125.81C54.7571 124.95 54.7067 124.089 54.7836 123.233C55.0481 123.236 55.3127 123.236 55.5785 123.238C55.5785 122.108 55.5785 120.979 55.5785 119.849C55.8669 119.848 56.1554 119.847 56.4452 119.844C56.4552 118.678 56.4174 117.511 56.4666 116.347C56.7588 116.347 57.0511 116.344 57.3446 116.342C57.3421 115.202 57.3421 114.063 57.3446 112.923C57.6142 112.922 57.885 112.923 58.1546 112.925C58.1559 111.526 58.1546 110.128 58.1559 108.73C58.6925 108.73 59.2292 108.729 59.7671 108.731C59.7671 108.194 59.7671 107.659 59.7671 107.124C59.2304 107.123 58.695 107.122 58.1597 107.124C58.1534 106.587 58.1559 106.052 58.1559 105.516C58.4633 105.514 58.7706 105.506 59.0767 105.479C59.0704 105.113 59.0717 104.747 59.073 104.383C59.3514 104.38 59.631 104.38 59.9107 104.38C59.9082 102.931 59.9094 101.483 59.9094 100.033C60.1841 100.033 60.4587 100.033 60.7333 100.033C60.7333 99.388 60.732 98.7414 60.7333 98.0961C60.4108 98.0948 60.0883 98.0948 59.7671 98.0961C59.7658 97.5579 59.7683 97.0197 59.7646 96.4828C60.3012 96.4828 60.8366 96.4828 61.3732 96.4828C61.3732 95.9471 61.3732 95.4115 61.3732 94.877C61.4325 94.8745 61.5521 94.8695 61.6126 94.867C61.6113 94.6035 61.6101 94.3414 61.6076 94.0792C61.9049 94.0729 62.2009 94.0679 62.4982 94.0603C62.4919 92.6134 62.4969 91.1664 62.4957 89.7195C62.7665 89.7182 63.0386 89.7182 63.3107 89.7195C63.3095 87.0928 63.3107 84.4674 63.3095 81.842C63.3107 81.3152 63.2931 80.7871 63.3447 80.2627C63.6118 80.2678 63.8814 80.269 64.1497 80.2716C64.1447 78.2839 64.1623 76.2963 64.1409 74.3086C64.4483 74.2632 64.7594 74.2519 65.0693 74.2494C65.063 72.534 65.0681 70.8173 65.0668 69.1007C65.3389 69.1007 65.6097 69.1007 65.8818 69.1007C65.8818 68.1352 65.8831 67.1685 65.8818 66.203C66.2031 66.2017 66.5256 66.2017 66.8481 66.2017C66.8468 66.7374 66.8481 67.2731 66.8481 67.81C67.3847 67.8088 67.9214 67.8088 68.4593 67.81C68.4593 67.2743 68.4593 66.7387 68.4593 66.203C67.9214 66.2017 67.3847 66.2005 66.8481 66.2017C66.8468 65.6636 66.8468 65.1266 66.8481 64.5897C67.3847 64.5897 67.9226 64.5897 68.4593 64.5897C68.4593 64.0528 68.4593 63.5146 68.4593 62.9777C67.9201 62.9777 67.3809 62.9777 66.843 62.9777C66.8506 63.5146 66.8468 64.0515 66.8481 64.5897C66.3127 64.5897 65.7773 64.5897 65.2419 64.5897C65.2406 65.1279 65.2419 65.6648 65.2419 66.2017C64.704 66.2017 64.1673 66.2017 63.6307 66.2017C63.6294 65.6648 63.6294 65.1279 63.6307 64.5897C64.1673 64.5897 64.704 64.5897 65.2419 64.5897C65.2419 64.0515 65.2419 63.5146 65.2419 62.9764C65.7533 62.9777 66.2648 62.9852 66.7763 62.9638C66.7763 62.7193 66.7763 62.4747 66.7775 62.2315C67.0685 62.2315 67.3595 62.2315 67.6505 62.229C67.653 61.3858 67.6493 60.5413 67.653 59.6968C67.9125 59.6981 68.1733 59.6994 68.4341 59.7031C68.4555 59.3981 68.4618 59.0919 68.463 58.7868C68.9707 58.8108 69.4847 58.7415 69.9873 58.807C70.112 59.3187 69.9861 59.8607 70.0465 60.3838C70.5844 60.4493 71.1337 60.3913 71.6766 60.3976C71.6766 59.8594 71.6754 59.3238 71.6791 58.7868C71.1677 58.7755 70.6537 58.8158 70.1448 58.7692C69.8714 58.328 70.1586 57.7508 69.9961 57.2706C69.7719 57.1761 69.5212 57.2466 69.2882 57.2176C69.2592 56.8849 69.3159 56.5522 69.3134 56.2181C69.6195 56.2144 69.9269 56.2118 70.2342 56.2093C70.204 55.9673 70.2947 55.6686 70.0805 55.4909C70.0616 54.9804 70.073 54.4712 70.0705 53.9608C70.393 53.9608 70.7142 53.9608 71.0367 53.9608C71.0354 53.8814 71.0342 53.7226 71.0342 53.6432C71.339 53.6406 71.6439 53.623 71.9462 53.5827C71.9311 53.023 71.9361 52.4622 71.945 51.9013C72.2309 51.9025 72.5169 51.9025 72.8028 51.9C72.8028 51.619 72.8028 51.3366 72.8028 51.0556C73.0724 51.0568 73.3433 51.0568 73.6141 51.0568C73.6128 50.7858 73.6128 50.5161 73.6141 50.2464C73.8963 50.2464 74.1785 50.2464 74.4619 50.2464C74.4707 49.6616 74.4695 49.0767 74.4644 48.4919C74.768 48.4856 75.0716 48.4818 75.3765 48.4806C75.3752 48.2058 75.3752 47.9298 75.3752 47.655C75.6461 47.655 75.9169 47.655 76.1877 47.655C76.189 47.3487 76.194 47.0437 76.2041 46.7387C76.5027 46.7412 76.8025 46.7387 77.1023 46.7299C77.0998 46.4551 77.0985 46.1804 77.0998 45.9056C77.6541 45.9043 78.2084 45.9043 78.7626 45.9043C78.7626 45.6321 78.7626 45.3586 78.7626 45.0863C79.0499 45.0863 79.3383 45.0863 79.6256 45.0863C79.6306 44.7926 79.6306 44.499 79.6319 44.2053C79.9279 44.2015 80.2252 44.2003 80.5225 44.2003C80.5288 43.9091 80.5326 43.6167 80.5351 43.3256C81.1095 43.3243 81.6852 43.3331 82.2597 43.3155C82.2584 43.0432 82.2584 42.771 82.2597 42.4987C82.8114 42.4987 83.3632 42.4975 83.9162 42.4987C83.9162 42.2202 83.9162 41.9416 83.9175 41.6631C84.4239 41.6631 84.9303 41.6593 85.4367 41.6681L85.4027 41.5421C85.4707 41.5572 85.6093 41.5875 85.6786 41.6026C85.6824 41.3177 85.6836 41.0316 85.6849 40.7468C86.2656 40.7405 86.8489 40.7745 87.4284 40.7102C87.4221 40.4506 87.4195 40.1909 87.417 39.9313C88.2648 39.9275 89.1126 39.9351 89.9592 39.9263C89.963 39.6288 89.9642 39.3301 89.9667 39.0314C91.1144 39.0301 92.2607 39.0301 93.4083 39.0326C93.4134 38.7453 93.4146 38.4579 93.4159 38.1705C95.1329 38.168 96.8499 38.1693 98.567 38.1693C98.5657 37.8882 98.5657 37.6084 98.5682 37.3286ZM137.934 51.8231C137.934 52.3601 137.934 52.8983 137.934 53.4365C138.47 53.4352 139.007 53.4352 139.545 53.4365C139.545 52.8983 139.546 52.3613 139.546 51.8231C139.008 51.8231 138.47 51.8231 137.934 51.8231ZM114.834 52.8176C114.833 53.0898 114.833 53.3621 114.834 53.6343C115.117 53.6343 115.401 53.6356 115.687 53.6356C115.687 53.3621 115.687 53.0886 115.687 52.8163C115.401 52.8151 115.117 52.8163 114.834 52.8176ZM126.009 53.6331C126.308 53.6343 126.606 53.6356 126.906 53.6368C126.905 53.3621 126.905 53.0886 126.906 52.8151C126.606 52.8151 126.306 52.8176 126.008 52.8214C126.008 53.0911 126.008 53.3621 126.009 53.6331ZM75.374 53.6356C75.3752 53.715 75.3777 53.8751 75.379 53.9557C75.2177 53.957 75.059 53.9595 74.899 53.962C74.899 54.499 74.899 55.0359 74.899 55.5728C75.4369 55.5728 75.9736 55.5728 76.5102 55.5728C76.5115 55.0359 76.5102 54.4977 76.5115 53.9608C76.4309 53.9608 76.2709 53.9608 76.1903 53.9608C76.1915 53.8788 76.1915 53.7163 76.1915 53.6343C75.9182 53.6343 75.6461 53.6343 75.374 53.6356ZM78.7626 53.6356C78.7626 53.9116 78.7614 54.1877 78.7626 54.4637C78.5019 54.4624 78.2436 54.4612 77.9841 54.4561C77.9615 54.7498 77.9564 55.0447 77.9552 55.3397C77.6415 55.3686 77.3291 55.4014 77.0166 55.4405C77.0192 55.6913 77.0204 55.9421 77.0192 56.1942C78.1895 56.2358 79.361 56.2055 80.5326 56.2119C80.5313 55.3535 80.5313 54.4952 80.5326 53.6381C79.943 53.6331 79.3522 53.6356 78.7626 53.6356ZM82.2597 53.6343C82.2584 53.9104 82.2584 54.1864 82.2597 54.4637C82.5431 54.4624 82.8291 54.4612 83.1138 54.4574C83.1125 54.1851 83.1125 53.9116 83.1138 53.6394C82.8291 53.6356 82.5444 53.6343 82.2597 53.6343ZM71.6766 53.9608C71.6766 54.4977 71.6766 55.0359 71.6766 55.5728C72.2133 55.5728 72.7512 55.5728 73.2878 55.5728C73.2878 55.0359 73.2878 54.4977 73.2878 53.9608C72.7512 53.9608 72.2133 53.9608 71.6766 53.9608ZM101.962 54.4624C101.944 55.046 101.954 55.6295 101.952 56.2131C101.682 56.2131 101.413 56.2131 101.144 56.2131C101.144 56.7992 101.142 57.3853 101.148 57.9714C100.861 57.9714 100.575 57.9714 100.288 57.9714C100.288 58.5209 100.288 59.0704 100.288 59.6212C100.572 59.62 100.858 59.6212 101.144 59.6199C101.144 59.0717 101.143 58.5221 101.144 57.9739C101.413 57.9714 101.682 57.9714 101.952 57.9714C101.952 58.2449 101.952 58.5184 101.952 58.7919C102.81 58.7919 103.668 58.7919 104.526 58.7919C104.524 59.0679 104.524 59.3439 104.526 59.6212C105.645 59.6162 106.767 59.63 107.886 59.6124L107.842 59.7435L107.991 59.7019C107.986 59.9754 107.985 60.2489 107.982 60.5224C108.278 60.5274 108.574 60.53 108.873 60.5325C108.874 60.2287 108.877 59.925 108.887 59.6225C109.141 59.6212 109.396 59.6187 109.651 59.6137C109.674 59.9174 109.68 60.2224 109.685 60.5275C109.964 60.5287 110.243 60.53 110.523 60.5312C110.524 60.23 110.527 59.93 110.533 59.6288C110.847 59.6212 111.161 59.6187 111.477 59.6263C111.411 58.7717 111.472 57.9134 111.436 57.0576C109.724 57.0689 108.011 57.0601 106.299 57.0626C106.298 56.779 106.298 56.4967 106.299 56.2131C105.439 56.2131 104.58 56.2131 103.722 56.2131C103.721 55.9459 103.721 55.68 103.723 55.414C103.418 55.4128 103.116 55.3913 102.817 55.3434C102.819 55.0485 102.816 54.7548 102.807 54.4599C102.525 54.4624 102.243 54.4624 101.962 54.4624ZM83.9175 54.5317C83.9162 55.0926 83.9175 55.6522 83.9175 56.2131C83.6492 56.2131 83.3808 56.2131 83.1138 56.2131C83.1125 56.4954 83.1125 56.779 83.1138 57.0626C83.6744 57.0626 84.2349 57.0601 84.7955 57.0664C84.7968 57.3676 84.7993 57.6689 84.8018 57.9701C85.0941 57.9701 85.3863 57.9714 85.6799 57.9714C85.6811 57.6676 85.6849 57.3638 85.6874 57.0613C85.9557 57.0626 86.2241 57.0626 86.4936 57.0626C86.4911 56.4942 86.5088 55.9245 86.4747 55.3573C85.9154 55.3611 85.3561 55.3623 84.7968 55.356C84.7968 55.0825 84.798 54.8115 84.8006 54.5393C84.5058 54.5343 84.211 54.5317 83.9175 54.5317ZM114.023 54.533C114.023 54.8242 114.026 55.1153 114.033 55.4064C114.295 55.4052 114.558 55.4052 114.821 55.4064C114.83 55.1166 114.834 54.8254 114.836 54.5343C114.566 54.533 114.294 54.533 114.023 54.533ZM89.0711 55.4064C89.0711 55.6749 89.0711 55.9434 89.0723 56.2131C88.8002 56.2131 88.5294 56.2144 88.2585 56.2156C88.2585 56.8005 88.2585 57.3866 88.2585 57.9714C89.3847 57.9726 90.5109 57.9688 91.6371 57.9739C91.6472 57.3878 91.6422 56.8005 91.6434 56.2144C91.9281 56.2131 92.2128 56.2131 92.5001 56.2131C92.4988 55.9434 92.4988 55.6749 92.4988 55.4052C91.3562 55.4065 90.2136 55.4052 89.0711 55.4064ZM94.2209 56.2119C94.2209 56.4954 94.2196 56.779 94.2209 57.0626C93.9525 57.0626 93.6842 57.0626 93.4159 57.0626C93.4146 57.3651 93.4146 57.6676 93.4159 57.9714C93.683 57.9714 93.95 57.9714 94.2183 57.9714C94.2196 57.6676 94.2221 57.3638 94.2259 57.0601C94.5257 57.0613 94.8255 57.0639 95.1266 57.0677C95.1254 56.7841 95.1266 56.5017 95.1279 56.2194C94.8243 56.2144 94.5232 56.2131 94.2209 56.2119ZM95.9946 56.2131C95.9933 56.4954 95.9946 56.779 95.9946 57.0613C95.7048 57.0626 95.4164 57.0626 95.1279 57.0639C95.1254 57.6399 95.1266 58.2159 95.1266 58.7919C96.5426 58.7919 97.9598 58.7919 99.3757 58.7919C99.3757 58.2146 99.3707 57.6361 99.3833 57.0588C99.6566 57.0613 99.9312 57.0626 100.207 57.0639C100.206 56.7803 100.206 56.4967 100.207 56.2144C99.6591 56.2131 99.1124 56.2131 98.567 56.2131C98.5657 56.4967 98.5657 56.7803 98.5657 57.0639C98.2621 57.0626 97.9598 57.0613 97.6562 57.0576C97.6574 56.7765 97.6562 56.4942 97.6574 56.2144C97.1031 56.2131 96.5489 56.2131 95.9946 56.2131ZM113.152 56.2144C113.151 56.4967 113.152 56.779 113.152 57.0613C113.442 57.0613 113.733 57.0626 114.025 57.0626C114.024 56.779 114.024 56.4967 114.025 56.2131C113.733 56.2131 113.442 56.2131 113.152 56.2144ZM125.14 56.2156C125.139 56.8017 125.142 57.3878 125.135 57.9739C124.864 57.9714 124.597 57.9714 124.329 57.9714C124.329 59.1045 124.329 60.2375 124.329 61.3707C124.598 61.3707 124.868 61.3707 125.14 61.3707C125.139 60.5136 125.141 59.6553 125.139 58.7982C125.427 58.7931 125.717 58.7919 126.009 58.7906C126.009 57.931 126.009 57.0727 126.009 56.2131C125.718 56.2131 125.428 56.2144 125.14 56.2156ZM71.6766 57.1798C71.6766 57.7117 71.6779 58.2449 71.6728 58.778C72.2108 58.7931 72.7499 58.7868 73.2878 58.7868C73.2878 58.2512 73.2878 57.7155 73.2878 57.1798C72.7512 57.1798 72.2133 57.1798 71.6766 57.1798ZM112.258 57.9714C112.257 58.5234 112.264 59.0767 112.25 59.6288C112.551 59.6212 112.852 59.6187 113.155 59.6137C113.15 59.0679 113.152 58.5209 113.153 57.9751C112.854 57.9726 112.555 57.9714 112.258 57.9714ZM133.75 58.2675C133.75 58.8045 133.75 59.3414 133.75 59.8796C134.249 59.8342 134.787 59.983 135.259 59.7926C135.482 59.3263 135.308 58.7705 135.361 58.2675C134.823 58.2675 134.287 58.2675 133.75 58.2675ZM136.973 58.2675C136.973 58.8045 136.973 59.3427 136.973 59.8796C137.508 59.8796 138.043 59.8796 138.58 59.8796C138.579 59.3414 138.579 58.8045 138.58 58.2663C138.043 58.2675 137.508 58.2663 136.973 58.2675ZM114.025 58.7931C114.025 59.3691 114.024 59.9451 114.026 60.5224C113.733 60.5287 113.439 60.5476 113.148 60.5703C113.155 61.1236 113.151 61.6769 113.155 62.2315C113.443 62.2315 113.732 62.2315 114.023 62.2328C114.023 61.9454 114.025 61.658 114.025 61.3707C114.291 61.3707 114.559 61.3707 114.826 61.3719C114.83 61.0896 114.843 60.8073 114.869 60.5262C115.14 60.5287 115.412 60.53 115.686 60.5325C115.686 60.2539 115.686 59.9741 115.687 59.6956C115.421 59.6981 115.158 59.6994 114.894 59.7069C114.85 59.4032 114.829 59.0956 114.824 58.7894C114.557 58.7919 114.29 58.7919 114.025 58.7931ZM117.428 59.6174C117.413 59.9225 117.406 60.2275 117.405 60.5325C117.146 60.53 116.887 60.5287 116.63 60.5262C116.609 60.806 116.6 61.0883 116.596 61.3694C116.291 61.3694 115.989 61.3719 115.686 61.3833C115.688 61.9618 115.687 62.5403 115.687 63.1188C116.851 63.1466 118.015 63.1239 119.18 63.1314C119.179 63.4024 119.179 63.6734 119.179 63.9431C119.736 63.9444 120.292 63.9444 120.849 63.9444C120.848 63.6759 120.848 63.4087 120.847 63.1415C121.148 63.1339 121.449 63.1302 121.751 63.1314C121.754 62.8315 121.756 62.5327 121.759 62.2328C122.026 62.2315 122.294 62.2315 122.565 62.2315C122.565 61.6744 122.564 61.1186 122.567 60.5615C122.137 60.5224 121.705 60.5262 121.274 60.53C120.896 60.53 120.518 60.53 120.14 60.53C119.533 60.53 118.926 60.5287 118.32 60.5312C118.317 60.2275 118.313 59.925 118.303 59.6237C118.011 59.6225 117.719 59.6212 117.428 59.6174ZM111.426 59.6956C111.464 60.2539 111.444 60.8123 111.448 61.3707C111.717 61.3707 111.987 61.3707 112.259 61.3707C112.259 60.8123 112.25 60.2527 112.269 59.6943C111.987 59.6981 111.706 59.6994 111.426 59.6956ZM135.405 59.9376C135.298 60.443 135.39 60.9711 135.361 61.4866C135.897 61.4866 136.432 61.4866 136.967 61.4866C136.967 60.9497 136.967 60.4115 136.967 59.8746C136.45 59.9136 135.906 59.7901 135.405 59.9376ZM74.923 60.4455C74.8713 60.9333 74.9456 61.4286 74.889 61.9164C74.4002 62.1307 73.8157 61.9567 73.2878 62.0109C73.2878 62.5453 73.2878 63.0797 73.2878 63.6154C73.8169 63.6557 74.3485 63.6835 74.8789 63.652C74.9671 63.1339 74.8449 62.597 74.9381 62.079C75.4382 61.9227 75.99 62.0513 76.5115 62.0109C76.5102 61.4753 76.5115 60.9396 76.5115 60.4052C75.9849 60.4342 75.4294 60.3447 74.923 60.4455ZM99.3833 60.5186C99.3757 60.8022 99.3744 61.0871 99.3744 61.3732C99.678 61.3719 99.9829 61.3681 100.289 61.3593C100.288 61.1022 100.289 60.8438 100.295 60.5867C99.9905 60.5577 99.6869 60.5312 99.3833 60.5186ZM123.477 61.3707C123.479 62.2277 123.471 63.0861 123.483 63.9431C123.764 63.9431 124.046 63.9431 124.329 63.9444C124.329 63.086 124.329 62.229 124.329 61.3707C124.044 61.3707 123.76 61.3707 123.477 61.3707ZM136.973 61.4866C136.973 62.0235 136.973 62.5617 136.973 63.0986C137.508 63.0986 138.043 63.0986 138.58 63.0986C138.579 62.5605 138.579 62.0235 138.58 61.4866C138.043 61.4866 137.508 61.4866 136.973 61.4866ZM125.141 62.2328C125.139 63.0835 125.141 63.9343 125.139 64.7851C124.873 64.7825 124.609 64.7825 124.346 64.7775C124.317 65.3586 124.331 65.9408 124.329 66.5219C124.044 66.5219 123.76 66.5219 123.477 66.5231C123.477 67.1105 123.478 67.6978 123.474 68.2852C123.171 68.289 122.866 68.2915 122.564 68.294C122.564 68.4995 122.566 68.7062 122.569 68.9129C122.756 68.9381 122.992 68.8889 123.114 69.078C122.978 69.0855 122.707 69.1019 122.571 69.1095C122.57 69.4208 122.576 69.7372 122.474 70.0359C122.234 70.0283 121.994 70.0258 121.756 70.0245C121.756 70.5753 121.756 71.1274 121.756 71.6794C121.531 71.6794 121.304 71.6807 121.081 71.6857C121.097 71.8962 121.151 72.1017 121.28 72.2731C121.269 72.3537 121.245 72.5126 121.233 72.5932C121.157 72.5844 121.003 72.568 120.927 72.5604C120.923 72.8226 120.925 73.086 120.931 73.3495L120.803 73.3104L120.835 73.4478C120.551 73.4453 120.267 73.4453 119.984 73.449C119.984 73.9998 119.984 74.5506 119.984 75.1027C120.629 75.1077 121.275 75.1052 121.92 75.1052C121.92 75.2136 121.919 75.4279 121.919 75.535C121.993 75.5501 122.142 75.5816 122.217 75.598C122.208 75.7379 122.202 75.8778 122.198 76.019C123.178 76.0202 124.158 76.019 125.14 76.0202C125.139 76.29 125.139 76.5609 125.14 76.8319C122.564 76.8319 119.988 76.8319 117.413 76.8307C117.409 77.1332 117.408 77.4357 117.403 77.7382C117.135 77.7369 116.868 77.7369 116.603 77.7369C116.601 78.2953 116.601 78.8524 116.603 79.4107C116.323 79.4095 116.045 79.4095 115.767 79.4107C115.766 79.6956 115.767 79.9817 115.769 80.2678C115.708 80.2564 115.59 80.2325 115.531 80.2211L115.528 80.3573C115.296 80.3535 115.064 80.3535 114.834 80.3547C114.833 80.6295 114.831 80.9055 114.831 81.1816C114.562 81.179 114.294 81.179 114.025 81.179C114.024 81.4488 114.024 81.7185 114.024 81.9895C113.436 81.9882 112.847 81.9895 112.259 81.9882C112.258 81.7185 112.258 81.4488 112.258 81.179C111.987 81.179 111.717 81.179 111.448 81.1803C111.446 80.8753 111.45 80.569 111.462 80.2653C111.726 80.2678 111.992 80.269 112.258 80.2716C112.258 79.9829 112.258 79.6968 112.258 79.4107C111.987 79.4095 111.717 79.4095 111.448 79.4107C111.446 79.6956 111.446 79.9804 111.449 80.2665C111.142 80.2678 110.834 80.2716 110.528 80.2854C110.527 80.5829 110.524 80.8816 110.524 81.1803C109.974 81.179 109.425 81.1803 108.875 81.1803C108.875 81.4488 108.875 81.7172 108.875 81.987C108.578 81.9882 108.281 81.9907 107.983 81.9958C107.987 82.5844 107.987 83.173 107.983 83.7629C107.689 83.7616 107.395 83.7616 107.102 83.7641C107.103 84.6199 107.102 85.477 107.103 86.3328C108.552 86.3341 110 86.3328 111.449 86.3341C111.448 86.0316 111.444 85.7303 111.436 85.4291C111.159 85.4329 110.883 85.4329 110.609 85.4354C110.606 85.1493 110.606 84.8644 110.609 84.5796C110.299 84.5695 109.988 84.5657 109.679 84.5645C109.678 84.2973 109.678 84.0301 109.679 83.7641C111.396 83.7603 113.112 83.7629 114.829 83.7629C114.831 83.4755 114.833 83.1881 114.835 82.902C115.669 82.902 116.504 82.8907 117.34 82.9096L117.294 82.7961L117.415 82.7886C117.409 82.5226 117.408 82.2567 117.406 81.992C120.273 81.9844 123.141 81.992 126.007 81.9882C126.007 82.2895 126.01 82.5919 126.018 82.8944C126.296 82.897 126.576 82.8995 126.856 82.9058C126.882 82.815 126.935 82.6361 126.96 82.5466C127.012 82.6386 127.113 82.8239 127.163 82.9171C127.194 82.9083 127.257 82.8919 127.289 82.8831C127.283 82.9121 127.27 82.9688 127.264 82.9978C127.54 83.0558 127.575 83.3167 127.634 83.5486C127.755 83.5486 127.877 83.5499 128.001 83.5524C128.002 83.6242 128.006 83.7679 128.007 83.8397C128.182 83.9582 128.261 84.1586 128.366 84.3338C128.435 84.3338 128.576 84.3313 128.647 84.3313L128.714 84.0591C128.788 84.2191 128.831 84.3905 128.872 84.5632C128.488 84.5695 128.104 84.567 127.722 84.5683C127.721 84.8556 127.722 85.143 127.724 85.4304C128.026 85.4316 128.331 85.4354 128.636 85.443C128.638 86.0101 128.638 86.5786 128.638 87.1458C128.917 87.1458 129.197 87.1458 129.48 87.1458C129.48 87.4583 129.486 87.7722 129.511 88.0848C129.621 88.0608 129.839 88.0129 129.948 87.989L130.196 87.9776L130.133 88.1301L130.295 88.0532C130.29 88.3318 130.29 88.6116 130.287 88.8902C130.877 88.928 131.469 88.9141 132.061 88.9154C132.06 89.1826 132.058 89.451 132.06 89.7195C132.33 89.7195 132.601 89.7182 132.873 89.7195C132.873 90.0132 132.875 90.3068 132.88 90.6018C133.183 90.6018 133.488 90.6055 133.794 90.6144C133.794 91.4588 133.797 92.3046 133.793 93.1503L133.957 93.1175C133.986 93.4314 133.994 93.7465 133.997 94.0628C134.144 94.0754 134.293 94.0893 134.443 94.1044C134.428 94.6602 134.433 95.2173 134.44 95.7744C135.363 95.7719 136.286 95.7719 137.208 95.7744C137.217 95.206 137.214 94.6376 137.214 94.0704C137.796 94.0666 138.381 94.0918 138.963 94.0414C138.955 93.7704 138.953 93.4969 138.953 93.2272C139.229 93.2247 139.507 93.2259 139.787 93.2259C139.784 93.507 139.786 93.7893 139.787 94.0704C140.058 94.0704 140.33 94.0704 140.604 94.0704C140.603 93.4805 140.603 92.8907 140.603 92.302C140.905 92.2983 141.208 92.2945 141.51 92.2882C141.504 91.726 141.505 91.1652 141.509 90.6043C141.792 90.603 142.077 90.603 142.362 90.603C142.365 89.7573 142.363 88.9103 142.363 88.0646C142.076 88.0633 141.79 88.0646 141.505 88.0671C141.505 88.3394 141.506 88.6141 141.513 88.8876C140.937 88.9267 140.359 88.9154 139.783 88.9154C139.783 88.6003 139.793 88.2864 139.828 87.9738C140.087 87.9814 140.344 87.9827 140.603 87.9865C140.602 87.7079 140.603 87.4306 140.602 87.1533C141.188 87.142 141.776 87.147 142.364 87.1458C142.36 84.8531 142.369 82.5617 142.359 80.269C142.076 80.269 141.792 80.269 141.511 80.2703C141.503 81.1185 141.506 81.9668 141.509 82.815C141.212 82.8176 140.917 82.8213 140.622 82.8213C140.584 83.691 140.613 84.5632 140.603 85.4354C140.336 85.4329 140.07 85.4316 139.806 85.4278C139.778 86.0001 139.787 86.5735 139.787 87.1458C139.508 87.1458 139.231 87.1458 138.955 87.1458C138.954 86.5798 138.954 86.0139 138.954 85.448C138.652 85.4354 138.351 85.4316 138.051 85.4278C138.036 85.9963 138.042 86.5647 138.042 87.1332C136.907 87.1609 135.772 87.1395 134.637 87.1458C134.637 86.0177 134.637 84.8897 134.637 83.7629C134.049 83.7629 133.46 83.7616 132.873 83.7641C132.873 84.0313 132.873 84.2985 132.875 84.567C132.603 84.567 132.33 84.567 132.06 84.567C132.056 83.1339 132.07 81.7008 132.052 80.2665C131.782 80.269 131.513 80.269 131.245 80.2703C131.243 79.9804 131.243 79.6918 131.242 79.4031C131.513 79.4082 131.786 79.4107 132.06 79.412C132.061 78.5536 132.058 77.694 132.061 76.8357C131.764 76.8319 131.467 76.8294 131.171 76.8193C131.175 75.6951 131.171 74.5708 131.174 73.4453C130.878 73.4453 130.583 73.4465 130.29 73.4503C130.293 75.167 130.287 76.8849 130.293 78.6028C130.584 78.6028 130.878 78.6041 131.171 78.6053C131.171 78.875 131.174 79.146 131.183 79.417C130.884 79.4094 130.587 79.4095 130.291 79.4107C130.29 80.0006 130.291 80.5904 130.29 81.1803C130.019 81.179 129.75 81.179 129.482 81.1803C129.482 82.0399 129.483 82.9007 129.482 83.7629C129.2 83.7616 128.92 83.7616 128.641 83.7629C128.637 82.0475 128.634 80.3333 128.642 78.6179C128.338 78.6078 128.035 78.6015 127.734 78.6028C127.727 78.2839 127.726 77.9625 127.647 77.6525C127.126 77.6663 126.605 77.6588 126.085 77.66C126.083 77.384 126.083 77.1067 126.085 76.8319C126.63 76.8319 127.176 76.8319 127.722 76.8319C127.722 75.0573 127.722 73.2839 127.722 71.5105C127.717 70.985 127.75 70.4556 127.672 69.9338C127.416 69.9401 127.16 69.9426 126.906 69.9464C126.896 68.2234 126.926 66.5005 126.89 64.7788C126.621 64.7825 126.352 64.7825 126.086 64.7838C126.085 63.9418 126.082 63.0999 126.086 62.2567C125.771 62.234 125.456 62.2302 125.141 62.2328ZM131.171 62.2416C131.174 63.3898 131.176 64.538 131.17 65.6862C131.465 65.6963 131.761 65.7001 132.058 65.7026C132.061 66.2686 132.057 66.8357 132.063 67.4029C133.191 67.4016 134.318 67.4029 135.446 67.4016C135.446 67.6966 135.447 67.9928 135.451 68.289C136.62 68.3016 137.789 68.2738 138.958 68.3054C138.954 68.57 138.953 68.8347 138.954 69.1007C139.804 69.1019 140.656 69.0994 141.508 69.1019C141.506 69.3817 141.505 69.6615 141.506 69.9414C141.791 69.9426 142.077 69.9426 142.364 69.9426C142.363 69.3918 142.363 68.8423 142.364 68.2915C142.077 68.2902 141.794 68.2902 141.509 68.2902C141.496 67.1218 141.523 65.9522 141.494 64.7838C141.196 64.7838 140.898 64.7813 140.603 64.7788C140.602 64.5002 140.603 64.2229 140.604 63.9444C140.054 63.9431 139.505 63.9444 138.954 63.9444C138.954 64.2254 138.954 64.5078 138.954 64.7901C138.896 64.7737 138.779 64.7435 138.72 64.7271C138.722 64.7624 138.726 64.8342 138.729 64.8695C137.9 64.8241 137.063 64.9287 136.242 64.8103C136.482 64.7674 136.728 64.7586 136.975 64.7573C136.961 64.204 136.969 63.652 136.969 63.0986C136.432 63.0986 135.897 63.0986 135.361 63.0986C135.356 63.6621 135.376 64.2255 135.341 64.7888C135.402 64.8002 135.521 64.8229 135.581 64.8355C135.279 64.8594 134.977 64.8632 134.677 64.8733C134.608 64.2948 134.645 63.7125 134.638 63.1314C134.355 63.1314 134.073 63.1314 133.793 63.1327C133.793 63.3948 133.795 63.6583 133.802 63.9204C133.493 63.9393 133.183 63.9456 132.875 63.9469C132.873 63.6747 132.873 63.4024 132.875 63.1314C132.603 63.1314 132.333 63.1314 132.063 63.1327C132.061 62.8314 132.057 62.5302 132.055 62.229C131.758 62.2315 131.465 62.234 131.171 62.2416ZM110.61 62.2315C110.608 62.5315 110.608 62.8314 110.611 63.1327C110.887 63.1314 111.164 63.1314 111.441 63.1339C111.445 62.8327 111.445 62.5315 111.443 62.2302C111.164 62.2315 110.886 62.2315 110.61 62.2315ZM142.367 62.2315C142.363 62.5315 142.363 62.8315 142.367 63.1314C142.631 63.1314 142.897 63.1314 143.164 63.1327C143.168 62.8314 143.168 62.5315 143.167 62.2302C142.898 62.2315 142.631 62.2315 142.367 62.2315ZM122.565 63.9482C122.565 64.5317 122.565 65.1166 122.566 65.7014C122.871 65.7001 123.176 65.6951 123.482 65.6837C123.473 65.0989 123.478 64.5128 123.477 63.928C123.172 63.9393 122.869 63.9456 122.565 63.9482ZM128.638 63.9444C128.637 64.5292 128.637 65.1153 128.639 65.7001C128.919 65.6989 129.201 65.6989 129.482 65.6989C129.483 65.114 129.482 64.5292 129.483 63.9444C129.2 63.9431 128.919 63.9431 128.638 63.9444ZM143.167 63.9608C143.17 64.538 143.169 65.1153 143.169 65.6913C143.485 65.7014 143.803 65.6976 144.12 65.6736C144.11 65.1103 144.109 64.5456 144.123 63.9822C143.804 63.9482 143.484 63.9444 143.167 63.9608ZM144.114 66.5231C144.114 67.108 144.114 67.6928 144.113 68.2776C143.798 68.289 143.483 68.2927 143.169 68.299C143.169 69.1498 143.17 70.0006 143.169 70.8501C143.456 70.8577 143.744 70.8602 144.033 70.864C144.037 70.2943 144.043 69.7246 144.028 69.1549C144.331 69.1145 144.637 69.0956 144.944 69.0918C144.938 68.236 144.942 67.379 144.94 66.5219C144.664 66.5219 144.389 66.5219 144.114 66.5231ZM149.271 67.4016C149.269 67.6978 149.27 67.9953 149.275 68.2927C149.545 68.2902 149.818 68.2915 150.09 68.2915C150.093 67.9953 150.094 67.6991 150.095 67.4029C149.819 67.4016 149.543 67.4016 149.271 67.4016ZM124.327 82.9007C124.327 83.1869 124.329 83.4742 124.332 83.7629C124.599 83.7616 124.868 83.7616 125.137 83.7629C125.139 83.4742 125.139 83.1869 125.14 82.8995C124.868 82.8995 124.597 82.8995 124.327 82.9007ZM125.137 83.7629C125.137 84.0288 125.139 84.2973 125.14 84.5645C125.728 84.5695 126.316 84.5657 126.905 84.5683C126.905 84.2985 126.905 84.0301 126.906 83.7629C126.316 83.7629 125.727 83.7578 125.137 83.7629ZM86.4987 84.567C86.4987 84.9186 86.5138 85.2791 86.3916 85.6156C86.379 85.5677 86.3563 85.472 86.345 85.4241C86.1258 85.4291 85.9066 85.4329 85.6874 85.4367C85.6836 85.7341 85.6824 86.0328 85.6824 86.3315C85.3863 86.3328 85.0916 86.3341 84.7968 86.3366C84.7968 86.6 84.7993 86.8647 84.8031 87.1294C84.507 87.1395 84.211 87.1458 83.9162 87.1508C83.9175 87.7382 83.9175 88.3268 83.9162 88.9154C83.6479 88.9154 83.3808 88.9154 83.1138 88.9154C83.1213 91.203 83.0987 93.4906 83.1251 95.7782C83.3884 95.7732 83.6517 95.7719 83.9162 95.7707C83.9175 96.3315 83.9175 96.8937 83.9175 97.4546C84.211 97.4546 84.5045 97.4546 84.798 97.4558C84.798 98.0432 84.8006 98.6305 84.7955 99.2191C85.0916 99.2229 85.3876 99.2242 85.6849 99.2279C85.6824 99.4964 85.6824 99.7649 85.6836 100.035C85.9507 100.033 86.219 100.033 86.4873 100.032C86.4924 100.337 86.5037 100.641 86.5239 100.947C86.796 100.941 87.0681 100.94 87.3415 100.94C87.3389 101.203 87.3351 101.468 87.3288 101.732L87.4447 101.689L87.451 101.808C87.7194 101.803 87.989 101.803 88.2585 101.802C88.2585 102.071 88.2585 102.341 88.2585 102.612C88.5294 102.612 88.8002 102.612 89.0711 102.612C89.0711 102.898 89.0711 103.187 89.0723 103.474C89.3406 103.473 89.609 103.469 89.8773 103.465L89.8193 103.612L89.9705 103.559C89.9642 103.831 89.9642 104.106 89.963 104.38C90.254 104.38 90.5462 104.382 90.8385 104.383C90.8385 104.65 90.8385 104.919 90.8397 105.188C91.1043 105.187 91.3701 105.187 91.6359 105.186C91.6384 105.493 91.6485 105.802 91.6913 106.11C92.5265 106.095 93.3642 106.102 94.2007 106.105C94.2461 104.672 94.2083 103.237 94.2209 101.804C93.9513 101.803 93.683 101.803 93.4146 101.803C93.4146 101.516 93.4146 101.228 93.4159 100.941C92.5593 100.941 91.7027 100.938 90.8473 100.942C90.841 100.64 90.8372 100.337 90.8372 100.036C90.2489 100.032 89.6606 100.033 89.0723 100.033C89.0711 99.7636 89.0711 99.4939 89.0711 99.2254C88.8002 99.2241 88.5294 99.2242 88.2585 99.2242C88.2585 98.9456 88.2573 98.6658 88.2573 98.3872C88.0204 98.3885 87.7874 98.3923 87.5531 98.3973L87.5896 98.2524C87.5266 98.2675 87.4019 98.299 87.3389 98.3141C87.3389 97.1684 87.3389 96.0227 87.3389 94.877C87.0567 94.8758 86.7758 94.8758 86.4949 94.8758C86.4936 94.3262 86.4936 93.7755 86.4949 93.2259C86.772 93.2247 87.0504 93.2259 87.3288 93.2284C87.3188 93.1679 87.2961 93.0482 87.2848 92.989L87.4284 93.028C87.4221 92.7848 87.4195 92.5403 87.4183 92.2983C87.9688 92.297 88.5206 92.297 89.0711 92.2983C89.0723 91.4387 89.0711 90.5791 89.0723 89.7195C88.5206 89.7195 87.9713 89.7195 87.4208 89.7195C87.4195 90.0081 87.4195 90.2968 87.4208 90.5866C86.8426 90.6144 86.2644 90.6005 85.6862 90.6018C85.6786 92.6184 85.6849 94.635 85.6836 96.6517C85.9532 96.6504 86.2228 96.6504 86.4936 96.6504C86.4936 96.9176 86.4936 97.1861 86.4949 97.4546C86.2241 97.4546 85.9532 97.4546 85.6836 97.4546C85.6824 97.1861 85.6824 96.9189 85.6836 96.6517C85.4695 96.6504 85.2566 96.6504 85.0437 96.6504C85.0424 96.4903 85.0424 96.3303 85.0437 96.1702C84.982 96.1689 84.8585 96.1639 84.7968 96.1626C84.8018 95.4719 84.793 94.7812 84.8031 94.0906C84.701 94.0842 84.4982 94.0704 84.3962 94.0628C84.405 92.9083 84.3899 91.7538 84.4037 90.6005L84.5599 90.603C84.5599 90.5035 84.5625 90.3043 84.5637 90.2047C84.6217 90.2047 84.7388 90.2035 84.7968 90.2035C84.798 89.8531 84.7968 89.5027 84.8018 89.1523C85.0475 88.9922 85.2515 88.7818 85.4405 88.5587C85.4342 88.5398 85.4241 88.5007 85.4178 88.4818C85.6799 88.4843 85.7051 88.2738 85.7101 88.0621C85.894 88.0621 86.0792 88.0633 86.2644 88.0646C86.4684 87.7961 86.534 87.4785 86.5025 87.1458C87.3591 87.1458 88.2157 87.1458 89.0723 87.147C89.0711 87.4256 89.0711 87.7029 89.0711 87.9827C89.3633 87.9827 89.6568 87.9839 89.9504 87.9852C89.9617 88.2952 89.9655 88.604 89.9693 88.9154C90.259 88.9154 90.5487 88.9154 90.8397 88.9179C90.8385 89.48 90.836 90.0422 90.8435 90.6055C91.1081 90.603 91.3713 90.6018 91.6371 90.6018C91.646 91.1664 91.6434 91.7323 91.6434 92.2983C91.9281 92.297 92.2128 92.297 92.4988 92.2983C92.4988 93.1566 92.4988 94.0162 92.4988 94.8758C92.2141 94.8758 91.9281 94.8758 91.6434 94.877C91.6434 95.4682 91.6434 96.0593 91.6434 96.6504C91.9281 96.6504 92.2128 96.6504 92.4988 96.6517C92.4963 97.5024 92.5051 98.3545 92.4925 99.2065C92.7999 99.2204 93.1073 99.2254 93.4159 99.2279C93.4146 99.4964 93.4146 99.7649 93.4159 100.033C93.683 100.033 93.9513 100.033 94.2209 100.033C94.2209 99.1737 94.2209 98.3141 94.2209 97.4546C93.9513 97.4533 93.683 97.4546 93.4146 97.4546C93.4146 95.7354 93.4146 94.0162 93.4159 92.2983C93.683 92.297 93.9513 92.297 94.2209 92.2983C94.2209 92.0298 94.2209 91.7613 94.2209 91.4929C93.9525 91.4929 93.6842 91.4916 93.4172 91.4929C93.4146 91.1942 93.4134 90.898 93.4083 90.6005C93.1337 90.603 92.8578 90.603 92.5845 90.6055C92.5769 90.056 92.5744 89.5065 92.5857 88.9569C92.2733 88.9179 91.9584 88.9103 91.6447 88.9103C91.6434 88.628 91.6422 88.3444 91.6434 88.0633C91.3802 88.0633 91.1181 88.0646 90.8561 88.0671C90.841 87.7608 90.8372 87.4546 90.836 87.1483C90.5475 87.1458 90.2577 87.1458 89.9693 87.1458L89.9579 86.9832C90.1708 86.9794 90.3837 86.9756 90.5991 86.9718C90.6016 86.9176 90.6092 86.8105 90.613 86.7563C90.8624 86.7462 90.8397 86.5193 90.8649 86.3378C90.5651 86.3328 90.2653 86.3328 89.9667 86.3328C89.9642 86.0341 89.963 85.7366 89.9617 85.4392C89.3936 85.4304 88.8254 85.4342 88.2585 85.4329C88.2585 85.1443 88.2585 84.8556 88.2585 84.567C87.6715 84.567 87.0857 84.567 86.4987 84.567ZM115.689 86.3441C115.687 86.5975 115.684 86.8521 115.679 87.1079C115.985 87.1357 116.293 87.1483 116.603 87.1533C116.601 86.8786 116.601 86.605 116.601 86.3315C116.296 86.3328 115.992 86.3353 115.689 86.3441ZM118.316 88.0646C118.315 88.9091 118.318 89.7535 118.315 90.5993C118.013 90.6018 117.712 90.603 117.413 90.6043C117.409 90.8992 117.409 91.1942 117.409 91.4904C117.711 91.4904 118.015 91.4941 118.317 91.4979C118.316 91.7639 118.315 92.0311 118.316 92.2983C118.603 92.297 118.892 92.297 119.18 92.297C119.18 92.5819 119.177 92.8667 119.172 93.1528C119.443 93.1465 119.715 93.1465 119.989 93.1503C119.977 91.7399 119.988 90.3295 119.984 88.9204C120.271 88.9154 120.558 88.9141 120.847 88.9141C120.848 88.6305 120.848 88.3469 120.849 88.0646C120.005 88.0646 119.16 88.0646 118.316 88.0646ZM107.428 88.4326C107.423 88.9696 107.42 89.5065 107.422 90.0434C107.342 90.0447 107.181 90.0472 107.102 90.0485C107.102 90.3144 107.102 90.5803 107.102 90.8463C106.895 90.8463 106.69 90.8463 106.486 90.8475C106.463 90.7606 106.416 90.5854 106.394 90.4984C106.328 90.6749 106.285 90.8589 106.297 91.0505C106.299 92.326 106.298 93.6015 106.299 94.8758C106.566 94.8758 106.833 94.8758 107.103 94.877C107.102 97.1861 107.103 99.4939 107.102 101.803C106.833 101.803 106.566 101.803 106.299 101.803C106.299 100.353 106.298 98.904 106.299 97.4546C106.015 97.4546 105.73 97.4533 105.446 97.4558C105.449 96.6 105.443 95.7467 105.45 94.8922C105.142 94.8783 104.834 94.8745 104.527 94.8732C104.523 96.324 104.527 97.7747 104.526 99.2242C104.257 99.2242 103.989 99.2242 103.722 99.2242C103.722 105.24 103.722 111.255 103.722 117.269C103.989 117.269 104.257 117.269 104.526 117.269C104.524 117.539 104.524 117.809 104.526 118.078C104.805 118.077 105.084 118.076 105.364 118.077C105.368 118.661 105.368 119.246 105.366 119.832C105.944 119.859 106.523 119.846 107.103 119.848C107.102 120.114 107.102 120.382 107.102 120.651C107.394 120.651 107.686 120.651 107.98 120.653C107.983 120.965 107.987 121.276 108 121.589C108.291 121.587 108.583 121.587 108.875 121.59C108.874 121.867 108.875 122.147 108.875 122.426C109.426 122.426 109.975 122.426 110.527 122.427C110.526 122.691 110.526 122.959 110.526 123.225C111.101 123.245 111.678 123.235 112.255 123.236C112.257 123.537 112.26 123.841 112.264 124.145C112.56 124.143 112.855 124.143 113.152 124.147C113.152 124.43 113.151 124.713 113.152 124.998C113.713 125.001 114.273 124.999 114.834 124.999C114.833 125.268 114.833 125.536 114.834 125.808C115.42 125.813 116.007 125.811 116.594 125.81C116.6 126.097 116.601 126.384 116.604 126.674C117.171 126.674 117.736 126.673 118.303 126.676C118.313 126.976 118.317 127.277 118.32 127.579C118.874 127.578 119.428 127.578 119.984 127.579C119.982 127.849 119.984 128.123 119.984 128.395C120.573 128.397 121.163 128.397 121.752 128.395C121.754 128.699 121.756 129.002 121.759 129.307C122.332 129.307 122.905 129.304 123.478 129.314C123.477 129.595 123.476 129.874 123.477 130.157C124.031 130.157 124.586 130.157 125.14 130.157C125.139 130.424 125.139 130.691 125.139 130.961C126 130.97 126.861 130.963 127.722 130.965C127.721 130.695 127.722 130.427 127.722 130.158C127.998 130.157 128.275 130.156 128.554 130.157C128.552 129.88 128.552 129.603 128.552 129.329C128.649 129.326 128.843 129.32 128.939 129.317L128.908 129.213C129.098 129.215 129.289 129.218 129.483 129.222C129.493 128.371 129.458 127.519 129.506 126.668C129.767 126.673 130.028 126.673 130.29 126.677C130.29 126.118 130.291 125.561 130.29 125.004C130.583 125.001 130.878 124.998 131.174 124.998C131.173 124.413 131.174 123.828 131.173 123.245C131.467 123.238 131.764 123.235 132.061 123.235C132.058 122.965 132.06 122.697 132.06 122.428C132.33 122.426 132.603 122.426 132.875 122.426C132.876 121.834 132.87 121.243 132.882 120.652C133.161 120.652 133.438 120.651 133.719 120.651C133.714 120.416 133.712 120.186 133.706 119.954L133.842 120.003L133.793 119.845C134.073 119.847 134.354 119.847 134.636 119.849C134.636 119.556 134.638 119.263 134.642 118.972C134.909 118.973 135.175 118.973 135.444 118.976C135.448 118.409 135.448 117.843 135.444 117.277C135.742 117.271 136.04 117.268 136.341 117.268C136.339 116.988 136.339 116.711 136.338 116.434L136.493 116.482L136.428 116.34C136.689 116.345 136.95 116.345 137.213 116.349C137.214 115.797 137.214 115.245 137.214 114.693C137.489 114.69 137.766 114.689 138.043 114.684C138.04 113.24 138.042 111.797 138.042 110.352C137.474 110.342 136.907 110.347 136.34 110.346C136.339 110.077 136.339 109.809 136.34 109.54C136.63 109.539 136.922 109.538 137.214 109.538C137.214 109.263 137.213 108.987 137.214 108.714C137.709 108.714 138.206 108.71 138.703 108.717C138.708 108.685 138.72 108.618 138.726 108.585C138.783 108.6 138.897 108.629 138.954 108.644C138.954 108.351 138.954 108.057 138.957 107.765C139.231 107.765 139.508 107.765 139.786 107.766C139.786 107.496 139.786 107.228 139.787 106.96C140.059 106.96 140.33 106.959 140.604 106.96C140.603 106.674 140.603 106.39 140.603 106.105C140.899 106.102 141.198 106.1 141.496 106.101C141.513 105.529 141.504 104.956 141.508 104.385C140.933 104.379 140.36 104.382 139.787 104.382C139.786 104.104 139.784 103.826 139.786 103.55C139.55 103.551 139.317 103.555 139.084 103.561L139.112 103.416C139.051 103.43 138.933 103.455 138.873 103.468C138.873 103.182 138.873 102.897 138.875 102.612C138.32 102.612 137.767 102.612 137.214 102.612C137.214 102.055 137.214 101.498 137.214 100.941C136.923 100.94 136.634 100.94 136.345 100.938C136.334 99.7775 136.343 98.6166 136.34 97.4558C135.917 97.4546 135.494 97.4546 135.072 97.4546C135.074 97.5566 135.078 97.7596 135.079 97.8617C135.256 97.9461 135.277 98.1301 135.307 98.3053C134.807 98.3104 134.307 98.3091 133.808 98.3053C133.788 98.8612 133.789 99.417 133.804 99.9728C133.498 100.038 133.183 100.04 132.873 100.04C132.876 100.627 132.873 101.216 132.875 101.803C132.601 101.803 132.33 101.803 132.06 101.803C132.06 102.073 132.058 102.341 132.06 102.611C131.764 102.611 131.469 102.613 131.174 102.616C131.173 102.901 131.173 103.186 131.174 103.472C129.162 103.472 127.15 103.475 125.14 103.469C125.139 103.183 125.139 102.897 125.139 102.612C124.584 102.612 124.03 102.612 123.476 102.612C123.476 102.345 123.477 102.08 123.481 101.814C122.906 101.797 122.331 101.804 121.757 101.803C121.756 101.516 121.756 101.227 121.757 100.941C121.169 100.94 120.581 100.94 119.994 100.94C119.985 100.637 119.982 100.335 119.981 100.033C119.428 100.035 118.876 100.033 118.325 100.033C118.316 99.9211 118.312 99.809 118.312 99.6981C118.293 99.538 118.268 99.3792 118.235 99.2229C117.958 99.2241 117.683 99.2241 117.409 99.2229C117.41 98.633 117.409 98.0432 117.409 97.4546C117.139 97.4533 116.87 97.4546 116.601 97.4546C116.571 96.8332 116.69 96.1904 116.499 95.5879C116.487 95.6358 116.462 95.7328 116.45 95.782C116.223 95.7757 115.998 95.7719 115.774 95.7707C115.759 94.8997 115.776 94.0288 115.761 93.1579C115.451 93.1478 115.143 93.1453 114.834 93.1427C114.833 92.8604 114.833 92.5793 114.834 92.297C114.563 92.297 114.294 92.297 114.024 92.297C114.024 92.0285 114.024 91.7613 114.025 91.4941C113.733 91.4916 113.442 91.4916 113.151 91.4904C113.153 90.9005 113.151 90.3119 113.153 89.7233C112.303 89.7144 111.454 89.722 110.605 89.7182C110.606 89.4599 110.609 89.2027 110.615 88.9456C110.09 88.8977 109.561 88.9179 109.034 88.9166C109.033 88.754 109.033 88.5927 109.033 88.4326C108.497 88.4326 107.963 88.4326 107.428 88.4326ZM127.722 88.9141C127.722 89.7737 127.722 90.6333 127.722 91.4929C127.45 91.4916 127.178 91.4916 126.907 91.4929C126.906 91.1967 126.902 90.8992 126.901 90.6043C126.602 90.603 126.306 90.6018 126.01 90.5955C126.009 90.3031 126.008 90.0106 126.008 89.7182C125.717 89.7182 125.428 89.7195 125.14 89.722C125.127 90.8917 125.168 92.0613 125.116 93.2297C124.853 93.2259 124.589 93.2247 124.329 93.2247C124.327 93.7755 124.329 94.3262 124.329 94.877C124.044 94.8758 123.76 94.8758 123.477 94.877C123.476 95.1493 123.476 95.4228 123.478 95.6963C123.612 95.695 123.881 95.6925 124.016 95.6913L123.92 95.8148C124.054 95.7921 124.19 95.7719 124.326 95.7543C124.327 96.0517 124.327 96.3517 124.329 96.6517C123.742 96.6504 123.153 96.6504 122.566 96.6504C122.565 96.3567 122.564 96.0643 122.565 95.7732C121.993 95.7719 121.422 95.7782 120.852 95.7631C120.849 95.4682 120.848 95.172 120.848 94.877C120.562 94.8758 120.277 94.8758 119.993 94.8745C119.986 94.635 119.976 94.3956 119.96 94.1586C120.226 93.991 120.553 94.0943 120.849 94.0704C120.848 93.7881 120.848 93.507 120.849 93.2259C120.549 93.2259 120.251 93.2259 119.953 93.2247C119.972 93.4515 119.998 93.6797 120.028 93.9078C119.966 93.967 119.906 94.0275 119.846 94.088C119.621 94.0754 119.398 94.0691 119.175 94.0628C119.177 93.7818 119.18 93.5007 119.193 93.2196C118.899 93.2259 118.607 93.2259 118.316 93.2272C118.317 94.6363 118.316 96.0454 118.316 97.4558C118.602 97.4546 118.888 97.4546 119.175 97.4546C119.176 97.7671 119.181 98.0797 119.204 98.3935C119.463 98.3898 119.722 98.3885 119.984 98.3885C119.982 98.6645 119.984 98.9418 119.984 99.2204C120.575 99.2279 121.165 99.2242 121.756 99.2242C121.755 99.4939 121.755 99.7636 121.756 100.035C122.331 100.035 122.905 100.027 123.479 100.045C123.476 100.343 123.478 100.642 123.483 100.942C124.035 100.94 124.587 100.941 125.14 100.94C125.139 101.227 125.139 101.513 125.14 101.802C126 101.805 126.862 101.8 127.724 101.805C127.721 102.073 127.721 102.341 127.721 102.611C128.308 102.613 128.895 102.612 129.483 102.612C129.482 102.342 129.482 102.071 129.483 101.803C129.75 101.802 130.021 101.803 130.291 101.803C130.29 100.667 130.292 99.5317 130.29 98.3948C130.586 98.391 130.882 98.3885 131.179 98.3847C131.169 98.933 131.174 99.4813 131.174 100.03C131.469 100.032 131.764 100.033 132.06 100.035C132.058 99.4573 132.068 98.8801 132.046 98.3041C131.777 98.3066 131.508 98.3078 131.242 98.3129C131.242 98.0268 131.243 97.7407 131.245 97.4558C131.787 97.4546 132.33 97.4546 132.875 97.4558C132.873 95.7366 132.875 94.0174 132.875 92.2983C132.601 92.297 132.33 92.297 132.06 92.2983C132.058 92.0285 132.06 91.7613 132.06 91.4941C131.766 91.4929 131.471 91.4904 131.179 91.4878C131.175 91.3568 131.166 91.0959 131.161 90.966L131.348 90.9219L131.144 90.869C131.155 90.8034 131.176 90.6736 131.187 90.6081C130.888 90.603 130.588 90.6005 130.292 90.5993C130.29 90.3043 130.29 90.0107 130.29 89.717C129.738 89.7208 129.186 89.7195 128.636 89.7182C128.636 89.4561 128.638 89.1952 128.646 88.9343C128.337 88.9191 128.03 88.9141 127.722 88.9141ZM120.847 89.7308C120.848 90.0182 120.849 90.3056 120.85 90.5942C121.421 90.6093 121.993 90.6018 122.564 90.603C122.564 90.3081 122.565 90.0132 122.566 89.7195C121.992 89.7208 121.419 89.7107 120.847 89.7308ZM121.756 93.2259C121.755 93.507 121.756 93.7893 121.756 94.0704C122.302 94.0704 122.846 94.0704 123.391 94.0716C123.391 93.7893 123.391 93.507 123.393 93.2259C122.847 93.2259 122.302 93.2259 121.756 93.2259ZM61.3732 96.4828C61.3732 97.0197 61.3732 97.5579 61.3732 98.0961C61.9099 98.0948 62.4478 98.0961 62.9845 98.0948C62.9845 97.5579 62.9845 97.021 62.9845 96.484C62.4478 96.4828 61.9099 96.4815 61.3732 96.4828ZM138.042 96.6492C138.041 96.9151 138.04 97.181 138.042 97.4495C137.765 97.4533 137.489 97.4546 137.214 97.4558C137.214 98.0457 137.214 98.6343 137.214 99.2242C137.489 99.2242 137.765 99.2241 138.041 99.2254C138.041 99.4951 138.041 99.7636 138.042 100.035C138.346 100.033 138.649 100.032 138.955 100.027C138.954 98.9065 138.952 97.7848 138.957 96.6655C138.652 96.6529 138.347 96.6492 138.042 96.6492ZM144.942 97.4546C144.94 98.0444 144.94 98.6343 144.942 99.2242C144.081 99.2242 143.222 99.2254 142.363 99.2242C142.363 99.4939 142.363 99.7623 142.364 100.033C142.077 100.033 141.791 100.033 141.506 100.036C141.51 101.029 141.499 102.022 141.513 103.015C141.673 103.15 141.829 103.291 141.967 103.454C142.085 103.462 142.204 103.47 142.326 103.479C142.342 103.71 142.428 103.915 142.572 104.099C142.601 104.101 142.661 104.104 142.69 104.106C142.76 104.384 143.077 104.403 143.29 104.53C143.386 104.475 143.483 104.42 143.581 104.364C143.848 104.373 144.133 104.575 144.39 104.425C144.579 104.583 144.877 104.61 145.041 104.391C145.278 104.382 145.517 104.382 145.757 104.38C145.757 103.523 145.758 102.665 145.754 101.808C146.058 101.804 146.361 101.802 146.667 101.799C146.669 100.952 146.66 100.104 146.674 99.2569C146.366 99.233 146.059 99.2204 145.752 99.2128C145.759 98.6267 145.754 98.0406 145.757 97.4546C145.483 97.4533 145.211 97.4546 144.942 97.4546ZM136.571 100.031C136.576 100.101 136.586 100.244 136.591 100.314H136.653C136.818 100.473 137.004 100.604 137.19 100.742C137.207 100.506 137.214 100.27 137.222 100.037C137.004 100.033 136.787 100.032 136.571 100.031ZM137.931 100.975C138.21 101.306 138.696 101.102 139.073 101.161C139.19 101.347 139.419 101.314 139.604 101.358C139.603 101.413 139.603 101.522 139.602 101.577L139.769 101.589C139.778 101.373 139.786 101.158 139.793 100.942C139.172 100.948 138.55 100.911 137.931 100.975ZM66.2056 101.323C66.2081 101.858 66.2069 102.395 66.2069 102.932C66.7422 102.932 67.2776 102.932 67.813 102.932C67.813 102.394 67.813 101.857 67.813 101.32C67.2776 101.32 66.7422 101.318 66.2056 101.323ZM71.0367 102.932C71.0367 103.469 71.0367 104.006 71.0367 104.544C70.4988 104.544 69.9621 104.544 69.4255 104.544C69.4242 105.081 69.4242 105.619 69.4255 106.156C69.9621 106.156 70.4988 106.156 71.0367 106.156C71.0367 105.619 71.0367 105.081 71.0367 104.544C71.5733 104.543 72.11 104.544 72.6479 104.544C72.6479 104.006 72.6479 103.469 72.6479 102.932C72.11 102.932 71.5733 102.932 71.0367 102.932ZM59.7671 105.511C59.7671 106.048 59.7671 106.586 59.7671 107.124C60.3025 107.124 60.8379 107.123 61.3732 107.123C61.3732 106.585 61.3732 106.048 61.3732 105.511C60.8379 105.511 60.3025 105.511 59.7671 105.511ZM62.9845 105.511C62.9845 106.048 62.9845 106.585 62.9845 107.123C63.5211 107.123 64.059 107.123 64.5956 107.123C64.5956 106.585 64.5956 106.048 64.5956 105.511C64.059 105.511 63.5211 105.51 62.9845 105.511ZM61.3732 107.123C61.3732 107.659 61.3732 108.194 61.3732 108.73C61.9099 108.73 62.4465 108.73 62.9845 108.73C62.9845 108.194 62.9845 107.659 62.9845 107.123C62.4465 107.123 61.9099 107.123 61.3732 107.123ZM62.9845 108.735C62.9845 109.271 62.9845 109.806 62.9845 110.342C63.5211 110.342 64.059 110.342 64.5956 110.342C64.5956 109.806 64.5956 109.271 64.5956 108.735C64.059 108.735 63.5211 108.735 62.9845 108.735ZM64.5956 110.385C64.5956 110.922 64.5956 111.459 64.5956 111.997C64.059 111.996 63.5211 111.996 62.9845 111.997C62.9845 112.534 62.9845 113.071 62.9845 113.609C63.5211 113.609 64.059 113.609 64.5956 113.609C64.5956 113.071 64.5956 112.534 64.5956 111.997C65.131 111.996 65.6664 111.996 66.2018 111.997C66.2031 111.459 66.2018 110.922 66.2031 110.385C65.6664 110.384 65.131 110.384 64.5956 110.385ZM62.9845 115.221C62.9845 115.757 62.9845 116.292 62.9845 116.828C63.5211 116.828 64.059 116.828 64.5956 116.828C64.5956 116.292 64.5956 115.757 64.5956 115.221C64.059 115.221 63.5211 115.221 62.9845 115.221ZM137.052 121.938C137.052 122.475 137.052 123.013 137.052 123.55C137.587 123.55 138.121 123.55 138.658 123.551C138.658 123.013 138.658 122.475 138.658 121.938C138.121 121.938 137.587 121.938 137.052 121.938ZM137.052 125.163C137.052 125.7 137.052 126.237 137.052 126.775C137.587 126.774 138.121 126.774 138.658 126.775C138.658 126.237 138.658 125.7 138.658 125.163C138.123 125.162 137.587 125.162 137.052 125.163ZM67.493 126.775C67.493 127.312 67.493 127.85 67.493 128.39C68.0297 128.385 68.5676 128.387 69.1042 128.387C69.1042 127.849 69.1042 127.312 69.1042 126.775C68.5676 126.774 68.031 126.775 67.493 126.775ZM64.2757 126.775C64.2757 127.312 64.2757 127.849 64.2757 128.387C64.7922 128.404 65.3099 128.362 65.8252 128.391C65.9599 128.909 65.8441 129.465 65.8818 129.999C66.4185 129.999 66.9564 129.999 67.493 129.999C67.493 130.535 67.493 131.071 67.4943 131.606C68.031 131.606 68.5676 131.606 69.1042 131.606C69.1042 131.071 69.1042 130.535 69.1055 129.999C68.5676 129.999 68.0297 129.999 67.493 129.999C67.493 129.461 67.4956 128.924 67.4893 128.387C66.9879 128.365 66.4764 128.438 65.9801 128.347C65.747 127.881 65.9486 127.288 65.8818 126.775C65.3465 126.774 64.8111 126.774 64.2757 126.775ZM65.8818 131.606C65.8818 132.143 65.8818 132.681 65.8818 133.218C66.4185 133.218 66.9564 133.218 67.493 133.218C67.493 132.681 67.4943 132.143 67.4943 131.606C66.9577 131.606 66.4185 131.606 65.8818 131.606ZM140.269 135.797C140.269 136.333 140.269 136.868 140.269 137.404C140.806 137.404 141.344 137.404 141.882 137.404C141.88 136.866 141.88 136.328 141.88 135.791C141.343 135.797 140.806 135.797 140.269 135.797ZM85.7025 144.712C85.6862 145.014 85.6811 145.317 85.6799 145.622C85.9532 145.622 86.2266 145.622 86.5012 145.621C86.4974 145.314 86.4899 145.008 86.4571 144.706C86.2052 144.709 85.9532 144.711 85.7025 144.712ZM126.742 146.747C126.699 147.282 126.833 147.849 126.674 148.363C126.163 148.386 125.649 148.348 125.137 148.365C125.136 148.9 125.136 149.436 125.137 149.972C125.671 149.972 126.208 149.972 126.743 149.972C126.803 149.456 126.624 148.885 126.828 148.406C127.327 148.299 127.846 148.386 128.355 148.359C128.355 147.821 128.353 147.284 128.355 146.747C127.817 146.746 127.279 146.746 126.742 146.747ZM142.847 151.584C142.847 152.12 142.845 152.659 142.848 153.197C143.385 153.194 143.921 153.196 144.458 153.196C144.458 152.657 144.458 152.12 144.458 151.584C143.92 151.584 143.383 151.584 142.847 151.584ZM139.629 151.584C139.629 152.12 139.628 152.657 139.629 153.196C140.163 153.196 140.699 153.196 141.235 153.196C141.234 152.657 141.234 152.12 141.235 151.584C140.699 151.582 140.163 151.582 139.629 151.584ZM141.235 153.196C141.234 153.731 141.234 154.266 141.235 154.803C141.773 154.801 142.311 154.803 142.85 154.804C142.844 154.267 142.848 153.733 142.848 153.197C142.31 153.197 141.772 153.196 141.235 153.196ZM142.845 154.808C142.847 155.343 142.847 155.878 142.847 156.415C143.383 156.415 143.92 156.415 144.458 156.415C144.458 155.876 144.458 155.34 144.458 154.803C143.92 154.803 143.382 154.799 142.845 154.808ZM98.7295 157.061C98.7295 157.597 98.7295 158.133 98.7295 158.668C99.2661 158.668 99.804 158.668 100.342 158.668C100.341 158.131 100.341 157.596 100.341 157.061C99.804 157.06 99.2661 157.06 98.7295 157.061ZM95.5121 157.061C95.5108 157.596 95.5108 158.131 95.5121 158.668C96.0248 158.619 96.5804 158.772 97.0666 158.588C97.1875 158.091 97.0868 157.568 97.1183 157.061C96.5829 157.06 96.0475 157.06 95.5121 157.061ZM97.1183 158.753C97.0981 159.261 97.1309 159.77 97.1183 160.28C97.6549 160.28 98.1928 160.279 98.7295 160.28C98.7295 159.742 98.7295 159.205 98.7295 158.668C98.1978 158.717 97.6171 158.559 97.1183 158.753Z" fill="black"/>
</svg>
